<svg width="56" height="23" viewBox="0 0 56 23" fill="none" xmlns="http://www.w3.org/2000/svg">
<path d="M6.24 22.28V20.288C2.904 20.048 0.768 18.104 0.696 15.176H3.768C3.792 16.544 4.68 17.408 6.24 17.6V12.488L5.472 12.32C2.448 11.672 0.936 9.992 0.936 7.352C0.936 4.544 3.048 2.528 6.24 2.192V0.151999H8.088V2.192C11.112 2.504 12.984 4.4 13.08 7.28H10.104C10.056 5.984 9.336 5.144 8.088 4.88V10.04L8.904 10.232C11.976 10.904 13.368 12.392 13.368 14.936C13.368 17.864 11.304 19.88 8.088 20.24V22.28H6.24ZM6.144 9.608L6.24 9.632V4.856C4.8 5.096 3.936 5.96 3.936 7.256C3.936 8.528 4.608 9.272 6.144 9.608ZM8.256 12.92L8.088 12.872V17.552C9.528 17.264 10.392 16.424 10.392 15.2C10.392 13.976 9.696 13.232 8.256 12.92ZM27.4751 19.976L15.3071 20V17.696L21.0431 12.848C23.4191 10.832 24.2111 9.68 24.2111 8C24.2111 6.008 23.1311 4.88 21.2831 4.88C19.3631 4.88 18.1631 6.224 18.1391 8.48H15.0911C15.1151 4.64 17.5631 2.144 21.2831 2.144C25.0271 2.144 27.3551 4.28 27.3551 7.832C27.3551 10.28 26.0111 12.128 23.3471 14.408L20.1791 17.12H27.4751V19.976ZM34.716 11.312H32.58V9.32L37.092 5.168H29.796V2.456H40.932V4.904L36.66 8.84C39.348 9.368 41.436 11.336 41.436 14.432C41.436 18.032 38.628 20.312 35.076 20.312C31.644 20.312 28.98 18.2 28.98 14.408H32.004C32.004 16.424 33.252 17.576 35.124 17.576C37.044 17.576 38.316 16.328 38.316 14.384C38.316 12.608 37.164 11.312 34.716 11.312ZM55.1314 19.976L42.9634 20V17.696L48.6994 12.848C51.0754 10.832 51.8674 9.68 51.8674 8C51.8674 6.008 50.7874 4.88 48.9394 4.88C47.0194 4.88 45.8194 6.224 45.7954 8.48H42.7474C42.7714 4.64 45.2194 2.144 48.9394 2.144C52.6834 2.144 55.0114 4.28 55.0114 7.832C55.0114 10.28 53.6674 12.128 51.0034 14.408L47.8354 17.12H55.1314V19.976Z" fill="black" fill-opacity="0.4"/>
<path d="M0 12.8H55.9954V14H0V12.8Z" fill="black" fill-opacity="0.4"/>
</svg>
